<svg width="291" height="47" viewBox="0 0 291 47" fill="none" xmlns="http://www.w3.org/2000/svg">
<path fill-rule="evenodd" clip-rule="evenodd" d="M170.415 45.36C173.701 46.2987 177.135 46.768 180.719 46.768C184.986 46.768 188.506 46.128 191.279 44.848C194.095 43.568 196.207 41.8827 197.615 39.792C199.023 37.7013 199.727 35.3973 199.727 32.88C199.727 30.5333 199.237 28.592 198.255 27.056C197.317 25.52 196.079 24.2827 194.543 23.344C193.007 22.4053 191.301 21.6587 189.423 21.104C187.589 20.5493 185.733 20.0587 183.855 19.632C182.021 19.2053 180.335 18.7787 178.799 18.352C177.263 17.9253 176.026 17.3707 175.087 16.688C174.149 15.9627 173.679 15.024 173.679 13.872C173.679 12.8907 173.957 12.0373 174.511 11.312C175.066 10.544 175.983 9.92534 177.263 9.45601C178.543 8.98667 180.186 8.75201 182.191 8.75201C184.197 8.75201 186.245 9.05067 188.335 9.64801C190.426 10.2027 192.517 11.0773 194.607 12.272L197.807 4.40001C195.717 3.07734 193.306 2.096 190.575 1.45601C187.845 0.77334 185.071 0.432007 182.255 0.432007C178.031 0.432007 174.511 1.07201 171.695 2.35201C168.922 3.58934 166.831 5.27467 165.423 7.408C164.058 9.49867 163.375 11.824 163.375 14.384C163.375 16.7733 163.845 18.736 164.783 20.272C165.765 21.808 167.023 23.0453 168.559 23.984C170.095 24.9227 171.781 25.6907 173.615 26.288C175.493 26.8853 177.349 27.3973 179.183 27.824C181.061 28.208 182.767 28.6347 184.303 29.104C185.839 29.5307 187.077 30.1067 188.015 30.832C188.954 31.5147 189.423 32.4533 189.423 33.648C189.423 34.5867 189.125 35.4187 188.527 36.144C187.93 36.8693 186.991 37.4453 185.711 37.872C184.474 38.256 182.831 38.448 180.783 38.448C178.095 38.448 175.429 38.0213 172.783 37.168C170.181 36.272 167.919 35.1413 165.999 33.776L162.479 41.584C164.485 43.12 167.13 44.3787 170.415 45.36ZM224.812 1.20001V46H235.18V1.20001H224.812ZM245.812 1.20001V46H266.164C271.028 46 275.316 45.0827 279.028 43.248C282.74 41.3707 285.641 38.768 287.732 35.44C289.823 32.0693 290.868 28.1227 290.868 23.6C290.868 19.0347 289.823 15.088 287.732 11.76C285.641 8.43201 282.74 5.85068 279.028 4.01601C275.316 2.13868 271.028 1.20001 266.164 1.20001H245.812ZM211.134 46.512C209.427 46.512 207.955 45.936 206.718 44.784C205.523 43.5893 204.926 42.0747 204.926 40.24C204.926 38.4053 205.523 36.9333 206.718 35.824C207.955 34.672 209.427 34.096 211.134 34.096C212.883 34.096 214.355 34.672 215.55 35.824C216.745 36.9333 217.342 38.4053 217.342 40.24C217.342 42.0747 216.745 43.5893 215.55 44.784C214.355 45.936 212.883 46.512 211.134 46.512ZM133.366 37.68V27.312H154.166V19.248H133.366V9.52001H156.918V1.20001H123.062V46H157.75V37.68H133.366ZM74.1243 1.20001V46H97.2923C103.18 46 107.639 44.9333 110.668 42.8C113.698 40.624 115.212 37.616 115.212 33.776C115.212 31.1733 114.594 28.976 113.356 27.184C112.162 25.392 110.476 24.048 108.3 23.152C107.9 22.9795 107.49 22.8229 107.068 22.6821C108.81 21.7666 110.202 20.5365 111.244 18.992C112.396 17.2427 112.972 15.1947 112.972 12.848C112.972 9.34935 111.543 6.53335 108.684 4.40001C105.868 2.26668 101.644 1.20001 96.0123 1.20001H74.1243ZM53.1243 46V1.20001H63.4923V46H53.1243ZM0.423828 1.20001L19.7518 46H29.9918L49.3838 1.20001H39.0798L25.2486 33.1976L11.6238 1.20001H0.423828Z" fill="url(#paint0_linear_93_154)"/>
<defs>
<linearGradient id="paint0_linear_93_154" x1="0.423828" y1="23.6" x2="290.868" y2="23.6" gradientUnits="userSpaceOnUse">
<stop stop-color="#89CDA4"/>
<stop offset="1" stop-color="#05B4E3"/>
</linearGradient>
</defs>
</svg>
